{"title":"Kareeb {1998} - 1CD Dvdrip - x264 - snaink - {DUS} @ dustorrents","uid":6608299,"size":732352561,"categoryP":"video","categoryS":"movies","magnet":"?xt=urn:btih:9bde420310d0a7fcf23f368eb206e40b9d932c31&amp;dn=Kareeb+%7B1998%7D+-+1CD+Dvdrip+-+x264+-+snaink+-+%7BDUS%7D+%40+dustorrents&amp;tr=udp%3A%2F%2Ftracker.openbittorrent.com%3A80&amp;tr=udp%3A%2F%2Fopen.demonii.com%3A1337&amp;tr=udp%3A%2F%2Ftracker.coppersurfer.tk%3A6969&amp;tr=udp%3A%2F%2Fexodus.desync.com%3A6969","seeders":0,"leechers":2,"uploader":"snaink","files":2,"time":1313453731,"description":"[center]\n===========Visit DUSTorrents.com for more Exclusives==============\n\n Visit DusTorrents.com for more exclusives....a Complete FreeLeech Site!! And Registrations are absolutely FREE!!\n\n Register by visiting..... http://www.dustorrents.com/register.php\n\n ========================================================\n\n[img]http://i1139.photobucket.com/albums/n555/snaink/DUS/TeamDusPresents.gif[/img]\n\n\n[SIZE=&quot;5&quot;][COLOR=&quot;Green&quot;][b]Kareeb (1998)[/SIZE]\n[SIZE=&quot;3&quot;]\n***************************************************************** \nKareeb (1998) - 1 CD Dvdrip - x264 - snaink - DUS\n***************************************************************** \n[/b][/COLOR][/size]\n\n[IMG]http://i1122.photobucket.com/albums/l535/snaink-movies/Kareeb1998snaink00-31-17.jpg[/IMG]\n\n\n[img]http://img293.imageshack.us/img293/8646/dusinfo.png[/img]\n\n\n[code]\nRipper                           : [color=green]snaink[/color]\nSource                           : [color=green]DVD 9 @ dhavalobarot007 of M2TV[/color]\n\n[b]General[/b]\nFormat                           : Matroska\nFile size                        : 698 MiB\nDuration                         : 2h 36mn\nOverall bit rate                 : 625 Kbps\nEncoded date                     : UTC 2011-01-19 05:41:46\n\n[b]Video[/b]\nFormat                           : AVC\nFormat/Info                      : Advanced Video Codec\nFormat profile                   : &lt;a class=&quot;__cf_email__&quot; href=&quot;/cdn-cgi/l/email-protection&quot; data-cfemail=&quot;1d55747a755d512e332d&quot;&gt;[email&amp;#160;protected]&lt;/a&gt;&lt;script cf-hash='f9e31' type=&quot;text/javascript&quot;&gt;\n/* &lt;![CDATA[ */!function(){try{var t=&quot;currentScript&quot;in document?document.currentScript:function(){for(var t=document.getElementsByTagName(&quot;script&quot;),e=t.length;e--;)if(t[e].getAttribute(&quot;cf-hash&quot;))return t[e]}();if(t&amp;&amp;t.previousSibling){var e,r,n,i,c=t.previousSibling,a=c.getAttribute(&quot;data-cfemail&quot;);if(a){for(e=&quot;&quot;,r=parseInt(a.substr(0,2),16),n=2;a.length-n;n+=2)i=parseInt(a.substr(n,2),16)^r,e+=String.fromCharCode(i);e=document.createTextNode(e),c.parentNode.replaceChild(e,c)}}}catch(u){}}();/* ]]&gt; */&lt;/script&gt;\nFormat settings, CABAC           : Yes\nFormat settings, ReFrames        : 4 frames\nMuxing mode                      : Container profile=&lt;a class=&quot;__cf_email__&quot; href=&quot;/cdn-cgi/l/email-protection&quot; data-cfemail=&quot;f1a49f9a9f9e869fb1c2dfc1&quot;&gt;[email&amp;#160;protected]&lt;/a&gt;&lt;script cf-hash='f9e31' type=&quot;text/javascript&quot;&gt;\n/* &lt;![CDATA[ */!function(){try{var t=&quot;currentScript&quot;in document?document.currentScript:function(){for(var t=document.getElementsByTagName(&quot;script&quot;),e=t.length;e--;)if(t[e].getAttribute(&quot;cf-hash&quot;))return t[e]}();if(t&amp;&amp;t.previousSibling){var e,r,n,i,c=t.previousSibling,a=c.getAttribute(&quot;data-cfemail&quot;);if(a){for(e=&quot;&quot;,r=parseInt(a.substr(0,2),16),n=2;a.length-n;n+=2)i=parseInt(a.substr(n,2),16)^r,e+=String.fromCharCode(i);e=document.createTextNode(e),c.parentNode.replaceChild(e,c)}}}catch(u){}}();/* ]]&gt; */&lt;/script&gt;\nCodec ID                         : V_MPEG4/ISO/AVC\nDuration                         : 2h 36mn\nBit rate                         : 528 Kbps\nWidth                            : 688 pixels\nHeight                           : 352 pixels\nDisplay aspect ratio             : 1.955\nFrame rate                       : 23.976 fps\nColor space                      : YUV\nChroma subsampling               : 4:2:0\nBit depth                        : 8 bits\nScan type                        : Progressive\nBits/(Pixel*Frame)               : 0.091\nStream size                      : 577 MiB (83%)\nWriting library                  : x264 core 98 r1649 c54c47d\n\n[b]Audio[/b]\nFormat                           : AC-3\nFormat/Info                      : Audio Coding 3\nMode extension                   : CM (complete main)\nCodec ID                         : A_AC3\nDuration                         : 2h 36mn\nBit rate mode                    : Constant\nBit rate                         : 96.0 Kbps\nChannel(s)                       : 2 channels\nChannel positions                : Front: L R\nSampling rate                    : 48.0 KHz\nStream size                      : 107 MiB (15%)\nLanguage                         : Hindi\n\n[/code]\n\n\n[size=&quot;3&quot;]\n\n[b]Subtitles:[/b] English Muxed\n\n[b]Cast:[/b]\nBobby Deol \t... \tBrij 'Birju' Kumar \nNeha \t... \tNeha \nAbhay Chopra \t\t\nMoushumi Chatterjee \t... \tNeha's Mother \nJohnny Lever \t... \tBighelaal \nSushma Seth \t... \tLata (Mrs. Thakur Ranbir Singh) \nGopi Desai \t\t\nSaurabh Shukla \t... \tBirju's father (as Saurab Shukla) \nVijayendra Ghatge \t... \tDiwan Virendranath (as Vijendra Ghatge) \nAmit Phalke \t\t\nManav Kaushik \t\t\nShammi Kapoor \t... \tThakur Ranbir Singh \nSandhya \t\t\nAbhijit Joshi \t\t\nUday Chandra\n\n[b]imdb Link:[/b] [url]http://www.imdb.com/title/tt0189633/[/url]\n[/SIZE]\n\n[img]http://img293.imageshack.us/img293/1407/dusscreenshots.png[/img]\n\n\n[IMG]http://i1122.photobucket.com/albums/l535/snaink-movies/Kareeb-1CD/Kareeb1998snaink01-18-46.jpg[/IMG]\n[IMG]http://i1122.photobucket.com/albums/l535/snaink-movies/Kareeb-1CD/Kareeb1998snaink01-21-41.jpg[/IMG]\n[IMG]http://i1122.photobucket.com/albums/l535/snaink-movies/Kareeb-1CD/Kareeb1998snaink01-19-34.jpg[/IMG]\n[IMG]http://i1122.photobucket.com/albums/l535/snaink-movies/Kareeb-1CD/Kareeb1998snaink01-26-13.jpg[/IMG]\n[IMG]http://i1122.photobucket.com/albums/l535/snaink-movies/Kareeb-1CD/Kareeb1998snaink01-25-32.jpg[/IMG]\n[IMG]http://i1122.photobucket.com/albums/l535/snaink-movies/Kareeb-1CD/Kareeb1998snaink01-25-56.jpg[/IMG]\n[IMG]http://i1122.photobucket.com/albums/l535/snaink-movies/Kareeb-1CD/Kareeb1998snaink01-19-44.jpg[/IMG]\n\n\n[size=3][color=red][b]Note: Special Thanks to Du$ k@ $h3r[/b][/color][/size]\n\n[img]http://i1139.photobucket.com/albums/n555/snaink/DUS/dus.gif[/img]\n\n[COLOR=&quot;#008000&quot;][B][SIZE=&quot;4&quot;]snaink [DUS][/SIZE][/B][/COLOR]\n\n===========Visit DUSTorrents.com for more Exclusives==============\n\n Visit DusTorrents.com for more exclusives....a Complete FreeLeech Site!! And Registrations are absolutely FREE!!\n\n Register by visiting..... http://www.dustorrents.com/register.php\n\n ========================================================\n[/center]","torrent":{"xt":"urn:btih:9bde420310d0a7fcf23f368eb206e40b9d932c31","amp;dn":"Kareeb+%7B1998%7D+-+1CD+Dvdrip+-+x264+-+snaink+-+%7BDUS%7D+%40+dustorrents","amp;tr":["udp%3A%2F%2Ftracker.openbittorrent.com%3A80","udp%3A%2F%2Fopen.demonii.com%3A1337","udp%3A%2F%2Ftracker.coppersurfer.tk%3A6969","udp%3A%2F%2Fexodus.desync.com%3A6969"],"infoHash":"9bde420310d0a7fcf23f368eb206e40b9d932c31","infoHashBuffer":{"type":"Buffer","data":[155,222,66,3,16,208,167,252,242,63,54,142,178,6,228,11,157,147,44,49]},"announce":[],"urlList":[]}}